<?xml version="1.0" encoding="UTF-8" standalone="no"?>
<svg width="1217" height="627" viewBox="0 0 1217 627" fill="none" xmlns="http://www.w3.org/2000/svg">
<g clip-path="url(#clip0_1_200)">
<path d="M1050.69 583.702C1118.4 583.702 1173.3 528.808 1173.3 461.094C1173.3 393.38 1118.4 338.486 1050.69 338.486C982.976 338.486 928.083 393.38 928.083 461.094C928.083 528.808 982.976 583.702 1050.69 583.702Z" fill="#333333" stroke="#1A1A1A" stroke-width="11.7856"/>
<path d="M1048.84 385.931L981.086 506.513H1120.04L1048.84 385.931Z" stroke="#86EAC1" stroke-width="11.7856"/>
<path d="M755.892 583.702C823.607 583.702 878.5 528.808 878.5 461.094C878.5 393.38 823.607 338.486 755.892 338.486C688.178 338.486 633.284 393.38 633.284 461.094C633.284 528.808 688.178 583.702 755.892 583.702Z" fill="#333333" stroke="#1A1A1A" stroke-width="11.7856"/>
<path d="M814.408 402.578H697.376V519.61H814.408V402.578Z" stroke="#F05B90" stroke-width="11.7856"/>
<path d="M461.094 583.702C528.808 583.702 583.702 528.808 583.702 461.094C583.702 393.38 528.808 338.486 461.094 338.486C393.38 338.486 338.486 393.38 338.486 461.094C338.486 528.808 393.38 583.702 461.094 583.702Z" fill="#333333" stroke="#1A1A1A" stroke-width="11.7856"/>
<path d="M461.094 530.572C499.466 530.572 530.572 499.466 530.572 461.094C530.572 422.722 499.466 391.616 461.094 391.616C422.722 391.616 391.616 422.722 391.616 461.094C391.616 499.466 422.722 530.572 461.094 530.572Z" stroke="#FF8266" stroke-width="11.7856"/>
<path d="M166.296 583.702C234.01 583.702 288.903 528.808 288.903 461.094C288.903 393.38 234.01 338.486 166.296 338.486C98.5813 338.486 43.688 393.38 43.688 461.094C43.688 528.808 98.5813 583.702 166.296 583.702Z" fill="#333333" stroke="#1A1A1A" stroke-width="11.7856"/>
<path d="M166.296 461.094L222.832 517.631" stroke="#7CD5E8" stroke-width="11.7856" stroke-linejoin="bevel"/>
<path d="M166.296 461.094L109.759 517.631" stroke="#7CD5E8" stroke-width="11.7856" stroke-linejoin="bevel"/>
<path d="M166.296 461.094L222.832 404.557" stroke="#7CD5E8" stroke-width="11.7856" stroke-linejoin="bevel"/>
<path d="M166.296 461.094L109.759 404.557" stroke="#7CD5E8" stroke-width="11.7856" stroke-linejoin="bevel"/>
<path d="M1050.69 288.904C1118.4 288.904 1173.3 234.01 1173.3 166.296C1173.3 98.5814 1118.4 43.6881 1050.69 43.6881C982.976 43.6881 928.083 98.5814 928.083 166.296C928.083 234.01 982.976 288.904 1050.69 288.904Z" fill="white" stroke="#666666" stroke-width="11.7856"/>
<path d="M1048.84 91.1328L981.086 211.714H1120.04L1048.84 91.1328Z" stroke="#666666" stroke-width="11.7856"/>
<path d="M755.892 288.904C823.607 288.904 878.5 234.01 878.5 166.296C878.5 98.5814 823.607 43.6881 755.892 43.6881C688.178 43.6881 633.284 98.5814 633.284 166.296C633.284 234.01 688.178 288.904 755.892 288.904Z" fill="white" stroke="#666666" stroke-width="11.7856"/>
<path d="M814.408 107.78H697.376V224.811H814.408V107.78Z" stroke="#666666" stroke-width="11.7856"/>
<path d="M461.094 288.903C528.808 288.903 583.702 234.01 583.702 166.296C583.702 98.5813 528.808 43.688 461.094 43.688C393.38 43.688 338.486 98.5813 338.486 166.296C338.486 234.01 393.38 288.903 461.094 288.903Z" fill="white" stroke="#666666" stroke-width="11.7856"/>
<path d="M461.094 235.774C499.466 235.774 530.572 204.667 530.572 166.296C530.572 127.924 499.466 96.8177 461.094 96.8177C422.722 96.8177 391.616 127.924 391.616 166.296C391.616 204.667 422.722 235.774 461.094 235.774Z" stroke="#666666" stroke-width="11.7856"/>
<path d="M166.296 288.904C234.01 288.904 288.903 234.01 288.903 166.296C288.903 98.5814 234.01 43.6881 166.296 43.6881C98.5813 43.6881 43.688 98.5814 43.688 166.296C43.688 234.01 98.5813 288.904 166.296 288.904Z" fill="white" stroke="#666666" stroke-width="11.7856"/>
<path d="M166.296 166.296L222.832 222.833" stroke="#666666" stroke-width="11.7856" stroke-linejoin="bevel"/>
<path d="M166.296 166.296L109.759 222.833" stroke="#666666" stroke-width="11.7856" stroke-linejoin="bevel"/>
<path d="M166.296 166.296L222.832 109.759" stroke="#666666" stroke-width="11.7856" stroke-linejoin="bevel"/>
<path d="M166.296 166.296L109.759 109.759" stroke="#666666" stroke-width="11.7856" stroke-linejoin="bevel"/>
</g>
<defs>
<clipPath id="clip0_1_200">
<rect width="1217" height="627" fill="white"/>
</clipPath>
</defs>
</svg>
