<svg width="1193" height="579" viewBox="0 0 1193 579" fill="none" xmlns="http://www.w3.org/2000/svg">
<g clip-path="url(#clip0_1_200)">
<path d="M1038.7 559.507C1106.41 559.507 1161.31 504.613 1161.31 436.899C1161.31 369.185 1106.41 314.291 1038.7 314.291C970.983 314.291 916.09 369.185 916.09 436.899C916.09 504.613 970.983 559.507 1038.7 559.507Z" fill="#333333" stroke="#1A1A1A" stroke-width="11.7856"/>
<path d="M1036.85 361.736L969.093 482.318H1108.05L1036.85 361.736Z" stroke="#86EAC1" stroke-width="11.7856"/>
<path d="M743.899 559.507C811.613 559.507 866.507 504.613 866.507 436.899C866.507 369.185 811.613 314.291 743.899 314.291C676.185 314.291 621.291 369.185 621.291 436.899C621.291 504.613 676.185 559.507 743.899 559.507Z" fill="#333333" stroke="#1A1A1A" stroke-width="11.7856"/>
<path d="M802.415 378.384H685.383V495.415H802.415V378.384Z" stroke="#F05B90" stroke-width="11.7856"/>
<path d="M449.101 559.507C516.815 559.507 571.709 504.613 571.709 436.899C571.709 369.185 516.815 314.291 449.101 314.291C381.386 314.291 326.493 369.185 326.493 436.899C326.493 504.613 381.386 559.507 449.101 559.507Z" fill="#333333" stroke="#1A1A1A" stroke-width="11.7856"/>
<path d="M449.101 506.377C487.473 506.377 518.579 475.271 518.579 436.899C518.579 398.528 487.473 367.421 449.101 367.421C410.729 367.421 379.623 398.528 379.623 436.899C379.623 475.271 410.729 506.377 449.101 506.377Z" stroke="#FF8266" stroke-width="11.7856"/>
<path d="M154.303 559.507C222.017 559.507 276.91 504.613 276.91 436.899C276.91 369.185 222.017 314.291 154.303 314.291C86.5882 314.291 31.6948 369.185 31.6948 436.899C31.6948 504.613 86.5882 559.507 154.303 559.507Z" fill="#333333" stroke="#1A1A1A" stroke-width="11.7856"/>
<path d="M154.302 436.899L210.839 493.436" stroke="#7CD5E8" stroke-width="11.7856" stroke-linejoin="bevel"/>
<path d="M154.303 436.899L97.7661 493.436" stroke="#7CD5E8" stroke-width="11.7856" stroke-linejoin="bevel"/>
<path d="M154.302 436.899L210.839 380.362" stroke="#7CD5E8" stroke-width="11.7856" stroke-linejoin="bevel"/>
<path d="M154.303 436.899L97.7656 380.362" stroke="#7CD5E8" stroke-width="11.7856" stroke-linejoin="bevel"/>
<path d="M1038.7 264.709C1106.41 264.709 1161.31 209.815 1161.31 142.101C1161.31 74.3865 1106.41 19.4931 1038.7 19.4931C970.983 19.4931 916.09 74.3865 916.09 142.101C916.09 209.815 970.983 264.709 1038.7 264.709Z" fill="white" stroke="#666666" stroke-width="11.7856"/>
<path d="M1036.85 66.9378L969.093 187.52H1108.05L1036.85 66.9378Z" stroke="#666666" stroke-width="11.7856"/>
<path d="M743.899 264.709C811.613 264.709 866.507 209.815 866.507 142.101C866.507 74.3865 811.613 19.4931 743.899 19.4931C676.185 19.4931 621.291 74.3865 621.291 142.101C621.291 209.815 676.185 264.709 743.899 264.709Z" fill="white" stroke="#666666" stroke-width="11.7856"/>
<path d="M802.415 83.5852H685.383V200.616H802.415V83.5852Z" stroke="#666666" stroke-width="11.7856"/>
<path d="M449.101 264.708C516.815 264.708 571.709 209.815 571.709 142.101C571.709 74.3863 516.815 19.493 449.101 19.493C381.386 19.493 326.493 74.3863 326.493 142.101C326.493 209.815 381.386 264.708 449.101 264.708Z" fill="white" stroke="#666666" stroke-width="11.7856"/>
<path d="M449.101 211.579C487.473 211.579 518.579 180.472 518.579 142.101C518.579 103.729 487.473 72.6228 449.101 72.6228C410.729 72.6228 379.623 103.729 379.623 142.101C379.623 180.472 410.729 211.579 449.101 211.579Z" stroke="#666666" stroke-width="11.7856"/>
<path d="M154.303 264.709C222.017 264.709 276.91 209.815 276.91 142.101C276.91 74.3865 222.017 19.4931 154.303 19.4931C86.5882 19.4931 31.6948 74.3865 31.6948 142.101C31.6948 209.815 86.5882 264.709 154.303 264.709Z" fill="white" stroke="#666666" stroke-width="11.7856"/>
<path d="M154.302 142.101L210.839 198.638" stroke="#666666" stroke-width="11.7856" stroke-linejoin="bevel"/>
<path d="M154.303 142.101L97.7661 198.638" stroke="#666666" stroke-width="11.7856" stroke-linejoin="bevel"/>
<path d="M154.302 142.101L210.839 85.5642" stroke="#666666" stroke-width="11.7856" stroke-linejoin="bevel"/>
<path d="M154.303 142.101L97.7656 85.5643" stroke="#666666" stroke-width="11.7856" stroke-linejoin="bevel"/>
</g>
<defs>
<clipPath id="clip0_1_200">
<rect width="1193" height="579" fill="white"/>
</clipPath>
</defs>
</svg>
