<?xml version="1.0" encoding="UTF-8" standalone="no"?>
<svg width="1024" height="800" viewBox="0 0 1024 800" fill="none" xmlns="http://www.w3.org/2000/svg">
<g clip-path="url(#clip0_1_2)">
<path d="M790.83 605.736C801.181 634.768 812.769 663.337 824.371 691.891C837.363 723.665 848.883 756.259 865.508 786.369C869.06 791.262 873.382 797.734 879.366 799.168C877.856 798.597 876.684 797.307 875.635 795.856C873.111 789.752 870.587 783.648 868.062 777.544C857.197 747.88 845.953 718.347 833.117 689.472C819.072 661.766 807.517 632.042 790.83 605.736ZM885.77 798.747C884.513 798.965 883.256 799.188 881.999 799.4C881.909 799.415 881.823 799.421 881.734 799.432C882.942 799.44 884.196 799.292 885.536 798.836C885.614 798.807 885.692 798.776 885.77 798.747Z" fill="#F9F9F9" stroke="black" stroke-width="3.89785"/>
<path d="M234.462 599.523C199.121 659.585 173.649 725.123 149.444 790.288C148.394 792.322 147.481 794.468 146.346 796.434C145.397 797.081 144.53 797.972 143.531 798.472C147.34 797.279 150.282 794.931 152.537 791.671C156.835 786.001 159.694 779.289 163.139 773.062C178.36 740.878 191.467 707.772 204.417 674.631C212.987 652.347 222.009 630.244 231.153 608.19C232.185 605.29 233.33 602.408 234.462 599.523Z" fill="#F9F9F9" stroke="black" stroke-width="3.89785"/>
<path d="M323.813 297.536C327.275 313.395 326.047 329.993 320.203 345.241C307.307 368.211 288.404 387.278 272.028 407.833C247.437 438.74 227.887 473.277 208.225 507.444C185.516 552.674 164.294 598.845 146.752 646.362C131.092 685.227 120.77 725.971 105.318 764.877C102.549 773.639 97.0463 785.482 87.7286 787.873C97.1757 790.467 107.438 793.69 117.249 795.453C117.836 795.605 118.423 795.758 119.011 795.911C124.573 796.746 130.18 797.347 135.76 798.092C138.328 798.567 140.933 798.48 143.531 798.472C144.53 797.972 145.397 797.081 146.346 796.434C147.481 794.468 148.394 792.322 149.444 790.287C174.681 722.345 201.175 653.931 238.926 591.813C271.654 545.544 328.792 567.059 375.055 566.49C478.852 564.405 582.845 566.546 686.553 565.328C716.522 557.627 751.707 558.333 774.043 582.918C800.754 613.839 814.817 653.372 833.117 689.472C845.953 718.347 857.197 747.88 868.062 777.544C870.587 783.648 873.111 789.752 875.635 795.856C877.224 798.056 879.094 799.895 881.999 799.4C884.776 798.932 887.553 798.438 890.33 797.959C903.852 795.46 925.766 795.831 936.195 788.666C928.713 786.138 923.456 776.789 920.418 769.943C899.311 714.865 884.329 657.456 860.683 603.291C842.199 559.532 821.026 516.809 797.773 475.405C775.871 439.691 752.041 405.058 723.384 374.358C709.742 358.339 697.51 339.302 698.935 317.386C698.832 312.883 699.141 308.429 699.699 304.005C698.37 308.458 697.025 312.907 695.718 317.367C690.466 343.271 669.503 366.18 642.845 370.283C608.786 370.65 574.614 370.272 540.511 370.357C486.499 370.019 432.463 371.032 378.465 369.915C366.628 368.286 355.525 361.545 347.102 353.172C334.898 342.652 329.58 327.001 326.938 311.575C325.29 307.278 325.546 301.778 323.813 297.536Z" fill="#1A1A1A" stroke="black" stroke-width="3.89785"/>
<path d="M539.161 406.707C542.37 406.707 544.971 404.111 544.971 400.908C544.971 397.705 542.37 395.109 539.161 395.109C535.952 395.109 533.35 397.705 533.35 400.908C533.35 404.111 535.952 406.707 539.161 406.707Z" fill="black"/>
<path d="M520.485 406.707C523.694 406.707 526.295 404.111 526.295 400.908C526.295 397.705 523.694 395.109 520.485 395.109C517.276 395.109 514.675 397.705 514.675 400.908C514.675 404.111 517.276 406.707 520.485 406.707Z" fill="black"/>
<path d="M501.809 406.707C505.018 406.707 507.62 404.111 507.62 400.908C507.62 397.705 505.018 395.109 501.809 395.109C498.6 395.109 495.999 397.705 495.999 400.908C495.999 404.111 498.6 406.707 501.809 406.707Z" fill="black"/>
<path d="M483.134 406.707C486.343 406.707 488.944 404.111 488.944 400.908C488.944 397.705 486.343 395.109 483.134 395.109C479.925 395.109 477.323 397.705 477.323 400.908C477.323 404.111 479.925 406.707 483.134 406.707Z" fill="black"/>
<path d="M548.429 390.277C551.638 390.277 554.24 387.681 554.24 384.478C554.24 381.275 551.638 378.679 548.429 378.679C545.22 378.679 542.619 381.275 542.619 384.478C542.619 387.681 545.22 390.277 548.429 390.277Z" fill="black"/>
<path d="M529.754 390.277C532.962 390.277 535.564 387.681 535.564 384.478C535.564 381.275 532.962 378.679 529.754 378.679C526.545 378.679 523.943 381.275 523.943 384.478C523.943 387.681 526.545 390.277 529.754 390.277Z" fill="black"/>
<path d="M510.94 390.277C514.148 390.277 516.75 387.681 516.75 384.478C516.75 381.275 514.148 378.679 510.94 378.679C507.731 378.679 505.129 381.275 505.129 384.478C505.129 387.681 507.731 390.277 510.94 390.277Z" fill="black"/>
<path d="M492.541 390.277C495.749 390.277 498.351 387.681 498.351 384.478C498.351 381.275 495.749 378.679 492.541 378.679C489.332 378.679 486.73 381.275 486.73 384.478C486.73 387.681 489.332 390.277 492.541 390.277Z" fill="black"/>
<path d="M473.727 390.277C476.935 390.277 479.537 387.681 479.537 384.478C479.537 381.275 476.935 378.679 473.727 378.679C470.518 378.679 467.916 381.275 467.916 384.478C467.916 387.681 470.518 390.277 473.727 390.277Z" fill="black"/>
<path d="M672.838 519.269C705.507 519.269 731.991 492.838 731.991 460.232C731.991 427.627 705.507 401.195 672.838 401.195C640.168 401.195 613.685 427.627 613.685 460.232C613.685 492.838 640.168 519.269 672.838 519.269Z" fill="black"/>
<path d="M349.034 519.269C381.703 519.269 408.187 492.838 408.187 460.232C408.187 427.627 381.703 401.195 349.034 401.195C316.365 401.195 289.881 427.627 289.881 460.232C289.881 492.838 316.365 519.269 349.034 519.269Z" fill="black"/>
<path d="M694.893 145.967C712.135 145.945 728.54 152.24 745.515 153.295C754.798 151.327 761.457 152.701 770.518 154.013C812.216 157.25 852.93 167.355 893.54 176.689C902.251 176.822 913.325 177.49 915.462 187.824C937.183 231.541 954.629 277.253 970.717 323.265C989.413 381.846 1000.25 442.49 1010.61 502.972C1020.34 564.397 1018.7 627.193 1012.1 688.84C1007.92 719.53 999.184 751.991 974.735 772.957C966.34 781.535 956.162 788.314 943.789 788.809C932.158 792.273 924.399 778.911 920.418 769.943C899.31 714.865 884.33 657.457 860.684 603.292C842.199 559.533 821.025 516.809 797.772 475.405C775.871 439.69 752.042 405.058 723.385 374.358C709.743 358.339 697.509 339.303 698.934 317.386C698.437 295.533 707.267 274.798 710.435 253.332C715.236 227.611 722.781 202.138 724.789 176.066C721.036 167.243 713.085 161.292 708.005 153.557C704.34 149.996 699.616 147.773 694.893 145.967Z" fill="#F9F9F9" stroke="black" stroke-width="3.89785"/>
<path d="M325.611 146.233L280.836 152.321C263.804 149.328 246.675 153.948 229.519 155.169C196.123 160.185 163.219 168.349 130.261 175.159C122.046 176.135 111.685 174.839 109.672 184.833C79.7381 243.97 56.9526 306.541 40.0127 370.562C26.4926 429.158 12.6407 488.137 8.38427 548.255C6.48381 585.554 5.1526 622.942 8.95707 660.166C10.9291 698.869 18.5885 740.658 47.0861 769.107C56.4234 778.641 66.9276 788.037 81.1016 788.088C94.6039 791.06 101.943 775.558 105.318 764.877C120.77 725.971 131.092 685.227 146.752 646.362C164.294 598.845 185.516 552.674 208.225 507.444C227.887 473.277 247.437 438.74 272.028 407.833C288.404 387.278 307.307 368.211 320.203 345.241C326.304 329.324 327.433 311.926 323.383 295.442C318.623 263.366 308.528 232.265 303.269 200.224C301.244 188.223 294.111 172.38 306.828 163.827C314.246 159.009 317.444 150.282 325.611 146.233Z" fill="#F9F9F9" stroke="black" stroke-width="3.89785"/>
<path d="M745.967 181.03H757.192" stroke="#999999" stroke-width="3" stroke-linecap="round"/>
<path d="M745.967 175.912H757.192" stroke="#999999" stroke-width="3" stroke-linecap="round"/>
<path d="M745.967 170.597H757.192" stroke="#999999" stroke-width="3" stroke-linecap="round"/>
<path d="M280.219 174.584L275.995 180.093" stroke="#999999" stroke-width="3" stroke-linecap="round"/>
<path d="M270.995 171.449V178.386" stroke="#999999" stroke-width="3" stroke-linecap="round"/>
<path d="M261.497 174.591L265.731 180.093" stroke="#999999" stroke-width="3" stroke-linecap="round"/>
<path d="M712.319 159.183C713.618 161.596 714.356 164.229 714.021 167.111C708.407 214.372 695.465 260.466 686.808 307.236C683.784 331.435 665.124 354.462 639.631 356.067C556.211 356.605 472.777 355.526 389.361 356.083C367.599 357.946 346.967 343.115 339.927 322.84C329.558 279.983 320.85 236.7 311.582 193.587C307.567 181.927 306.772 169.469 311.766 159.587C310.288 161.156 308.693 162.616 306.828 163.827C294.111 172.38 301.244 188.223 303.269 200.224C308.528 232.265 318.623 263.365 323.383 295.442C323.552 296.131 323.657 296.831 323.809 297.523C325.548 301.768 325.288 307.274 326.938 311.575C329.58 327.001 334.898 342.652 347.102 353.172C355.525 361.545 366.628 368.286 378.465 369.915C432.463 371.032 486.499 370.019 540.511 370.357C574.614 370.272 608.786 370.649 642.845 370.283C669.503 366.18 690.466 343.271 695.718 317.367C697.025 312.907 698.37 308.458 699.699 304.005C701.851 286.958 707.918 270.375 710.434 253.333C715.235 227.612 722.781 202.137 724.788 176.065C721.989 169.483 716.856 164.501 712.319 159.183Z" fill="url(#paint0_radial_1_2)" stroke="black" stroke-width="3.90399"/>
<path d="M511.484 135.953C449.39 136.001 387.383 140.191 325.611 146.234C306.692 155.507 305.369 175.543 311.583 193.587C320.85 236.7 329.557 279.984 339.926 322.84C346.966 343.115 367.598 357.946 389.36 356.082C472.776 355.526 556.212 356.605 639.631 356.067C665.124 354.462 683.784 331.435 686.808 307.236C695.466 260.466 708.407 214.373 714.021 167.112C715.407 155.19 699.879 146.907 692.176 145.076C635.728 139.781 578.993 137.798 522.333 136.054C518.717 135.999 515.101 135.964 511.484 135.951V135.953Z" fill="#F9F9F9" stroke="black" stroke-width="3.89786"/>
<path d="M491.628 510.176C489.797 510.177 488.042 510.902 486.747 512.194C485.453 513.486 484.726 515.238 484.725 517.065C484.725 517.97 484.904 518.866 485.25 519.702C485.597 520.538 486.106 521.297 486.746 521.937C487.387 522.577 488.148 523.084 488.986 523.431C489.823 523.777 490.721 523.956 491.628 523.956H531.862C532.769 523.956 533.667 523.778 534.505 523.431C535.342 523.085 536.103 522.578 536.745 521.938C537.386 521.298 537.894 520.538 538.241 519.702C538.588 518.866 538.767 517.97 538.766 517.065C538.766 516.16 538.588 515.264 538.241 514.428C537.894 513.593 537.385 512.833 536.744 512.194C536.103 511.554 535.342 511.046 534.504 510.7C533.666 510.354 532.769 510.176 531.862 510.176H491.628Z" fill="#333333" stroke="black" stroke-width="5.89281" stroke-linecap="round" stroke-linejoin="round"/>
<path d="M504.134 451.009C495.517 454.72 486.809 458.249 478.437 462.496C475.789 464.827 477.669 469.228 480.577 470.384C486.699 474.016 494.228 474.485 501.072 473.005C505.383 472.616 509.593 471.465 513.484 469.578C519.153 467.27 524.871 465.084 530.546 462.792C522.943 465.987 515.339 469.182 507.735 472.377C505.717 475.372 509.95 477.902 512.552 478.198C516.467 478.623 519.967 476.387 523.689 475.602C530.291 473.354 536.712 470.604 543.142 467.926C546.346 465.963 545.321 460.685 542.05 459.344C538.153 457.075 533.579 456.265 529.112 456.618C524.431 456.815 519.473 456.89 515.337 459.384C513.02 460.718 510.448 461.491 507.79 461.734C502.324 462.775 497.213 465.072 491.838 466.447C497.699 464.365 503.571 462.315 509.436 460.245C507.669 457.166 505.901 454.088 504.134 451.009Z" fill="#333333" stroke="black" stroke-width="8.83922" stroke-linecap="round" stroke-linejoin="round"/>
<path d="M502.133 474.774C502.133 459.064 502.133 443.353 502.133 427.643C503.472 424.706 507.116 426.465 509.331 427.21C513.788 428.731 518.424 429.843 522.733 431.728C525.192 432.993 527.765 434.312 529.118 436.865C530.556 439.029 531.19 441.622 530.996 444.197C530.969 447.022 531.582 449.99 530.444 452.674C529.696 455.898 526.174 457.621 523.086 457.682C520.771 457.453 517.405 457.534 516.384 454.979C516.208 449.78 516.519 444.564 516.225 439.364C515.023 438.389 515.37 442.387 515.325 443.453C515.348 454.152 515.366 464.851 515.305 475.55C515.984 478.043 512.767 479.038 510.957 478.02C507.956 477.109 505.09 475.808 502.133 474.774Z" fill="#333333" stroke="black" stroke-width="8.83922" stroke-linecap="round" stroke-linejoin="round"/>
<path d="M827.386 429.137C845.517 429.137 860.215 414.468 860.215 396.372C860.215 378.277 845.517 363.607 827.386 363.607C809.255 363.607 794.557 378.277 794.557 396.372C794.557 414.468 809.255 429.137 827.386 429.137Z" fill="white" stroke="#666666" stroke-width="5"/>
<path d="M827.386 396.372L842.524 411.481" stroke="#666666" stroke-width="5" stroke-linejoin="bevel"/>
<path d="M827.386 396.372L812.248 411.481" stroke="#666666" stroke-width="5" stroke-linejoin="bevel"/>
<path d="M827.386 396.372L842.524 381.264" stroke="#666666" stroke-width="5" stroke-linejoin="bevel"/>
<path d="M827.386 396.372L812.248 381.264" stroke="#666666" stroke-width="5" stroke-linejoin="bevel"/>
<path d="M901.53 354.429C919.661 354.429 934.359 339.76 934.359 321.664C934.359 303.569 919.661 288.899 901.53 288.899C883.399 288.899 868.7 303.569 868.7 321.664C868.7 339.76 883.399 354.429 901.53 354.429Z" fill="white" stroke="#666666" stroke-width="5"/>
<path d="M901.53 340.231C911.804 340.231 920.133 331.918 920.133 321.664C920.133 311.41 911.804 303.097 901.53 303.097C891.255 303.097 882.926 311.41 882.926 321.664C882.926 331.918 891.255 340.231 901.53 340.231Z" stroke="#666666" stroke-width="5"/>
<path d="M752.176 354.429C770.307 354.429 785.005 339.76 785.005 321.664C785.005 303.569 770.307 288.899 752.176 288.899C734.045 288.899 719.347 303.569 719.347 321.664C719.347 339.76 734.045 354.429 752.176 354.429Z" fill="white" stroke="#666666" stroke-width="5"/>
<path d="M767.844 306.027H736.508V337.302H767.844V306.027Z" stroke="#666666" stroke-width="5"/>
<path d="M827.386 280.431C845.517 280.431 860.215 265.761 860.215 247.666C860.215 229.57 845.517 214.901 827.386 214.901C809.255 214.901 794.557 229.57 794.557 247.666C794.557 265.761 809.255 280.431 827.386 280.431Z" fill="white" stroke="#666666" stroke-width="5"/>
<path d="M826.891 227.58L808.749 259.803H845.956L826.891 227.58Z" stroke="#666666" stroke-width="5"/>
<path d="M166.559 392.515C168.578 399.414 174.756 405.65 182.241 405.879C187.513 406.062 192.789 405.752 198.063 405.94C202.217 405.873 206.458 406.31 210.555 405.652C218.285 403.136 225.046 395.7 224.39 387.226C224.309 378.53 225.735 369.384 222.242 361.131C219.495 353.812 213.022 349.031 207.642 343.723C204.697 341.194 202.037 338.233 198.738 336.17C194.561 334.267 189.661 336.31 186.809 339.581C180.079 345.655 173.429 352.137 168.886 360.043C166.544 366.289 166.834 373.085 166.45 379.639C166.434 383.931 166.615 388.223 166.559 392.515Z" fill="white" stroke="#666666" stroke-width="5"/>
<path d="M195.77 391.177C193.407 387.864 191.045 384.55 188.683 381.236C193.407 381.3 198.132 381.364 202.857 381.428C200.495 384.677 198.132 387.927 195.77 391.177Z" fill="#666666"/>
<path d="M265.436 293.2C272.348 295.215 278.597 301.38 278.826 308.85C279.01 314.112 278.699 319.378 278.887 324.642C278.82 328.788 279.257 333.02 278.598 337.109C276.078 344.824 268.627 351.572 260.136 350.917C251.424 350.837 242.259 352.259 233.99 348.773C226.657 346.031 221.866 339.571 216.548 334.201C214.014 331.262 211.047 328.608 208.98 325.315C207.073 321.147 209.12 316.256 212.398 313.41C218.484 306.693 224.978 300.056 232.9 295.521C239.158 293.185 245.968 293.474 252.534 293.09C256.835 293.075 261.135 293.255 265.436 293.2Z" fill="white" stroke="#666666" stroke-width="5"/>
<path d="M264.095 322.353C260.775 319.995 257.455 317.637 254.135 315.28C254.199 319.995 254.263 324.711 254.327 329.426C257.583 327.068 260.839 324.711 264.095 322.353Z" fill="#666666"/>
<path d="M125.054 293.2C118.142 295.215 111.894 301.38 111.665 308.85C111.481 314.112 111.791 319.378 111.604 324.642C111.67 328.788 111.233 333.02 111.892 337.109C114.412 344.824 121.863 351.572 130.354 350.917C139.066 350.837 148.231 352.259 156.5 348.773C163.833 346.031 168.624 339.571 173.942 334.201C176.476 331.262 179.443 328.608 181.51 325.315C183.417 321.147 181.37 316.256 178.093 313.41C172.006 306.693 165.512 300.056 157.59 295.521C151.332 293.185 144.522 293.474 137.956 293.09C133.655 293.075 129.355 293.255 125.054 293.2Z" fill="white" stroke="#666666" stroke-width="5"/>
<path d="M126.395 322.353C129.715 319.995 133.035 317.637 136.355 315.28C136.291 319.995 136.227 324.711 136.163 329.426C132.907 327.068 129.651 324.711 126.395 322.353Z" fill="#666666"/>
<path d="M166.559 250.646C168.578 243.748 174.756 237.512 182.241 237.283C187.513 237.1 192.789 237.41 198.063 237.222C202.217 237.289 206.458 236.852 210.555 237.51C218.285 240.026 225.046 247.462 224.39 255.936C224.309 264.631 225.735 273.778 222.242 282.031C219.495 289.35 213.022 294.131 207.642 299.439C204.697 301.968 202.037 304.929 198.738 306.992C194.561 308.895 189.661 306.852 186.809 303.581C180.079 297.507 173.429 291.025 168.886 283.119C166.544 276.873 166.834 270.077 166.45 263.523C166.434 259.231 166.615 254.939 166.559 250.646Z" fill="white" stroke="#666666" stroke-width="5"/>
<path d="M195.77 251.985C193.407 255.298 191.045 258.612 188.683 261.925C193.407 261.862 198.132 261.798 202.857 261.734C200.495 258.484 198.132 255.235 195.77 251.985Z" fill="#666666"/>
<path d="M750.801 188.766C751.489 188.773 752.175 188.844 752.85 188.978C754.289 189.262 755.658 189.826 756.878 190.639C758.099 191.451 759.147 192.495 759.963 193.712C760.779 194.928 761.347 196.294 761.634 197.729C761.921 199.165 761.923 200.643 761.638 202.079C761.588 202.321 761.531 202.56 761.466 202.798L761.546 202.814L757.443 223.484H757.371C757.155 226.283 755.888 228.898 753.823 230.806C751.759 232.714 749.049 233.774 746.235 233.774C743.273 233.774 740.432 232.6 738.337 230.51C736.242 228.419 735.065 225.584 735.065 222.627C735.065 221.485 735.241 220.351 735.586 219.262H735.536L739.555 199.003C739.588 198.581 739.644 198.161 739.725 197.746C740.231 195.194 741.616 192.9 743.639 191.26C745.662 189.62 748.195 188.738 750.801 188.766Z" fill="white" stroke="#666666" stroke-width="4" stroke-linejoin="bevel"/>
<path d="M272.362 188.766C271.675 188.773 270.989 188.844 270.314 188.977C268.875 189.262 267.506 189.826 266.286 190.638C265.065 191.451 264.017 192.495 263.201 193.712C262.385 194.928 261.817 196.293 261.53 197.729C261.242 199.165 261.241 200.643 261.526 202.079C261.575 202.32 261.632 202.56 261.697 202.797L261.618 202.814L265.721 223.484H265.793C266.009 226.283 267.276 228.898 269.341 230.806C271.405 232.714 274.115 233.774 276.929 233.774C279.891 233.774 282.732 232.6 284.827 230.509C286.922 228.419 288.099 225.584 288.099 222.627C288.099 221.485 287.923 220.35 287.577 219.262H287.628L283.609 199.003C283.576 198.581 283.52 198.161 283.439 197.746C282.933 195.194 281.548 192.9 279.525 191.26C277.502 189.62 274.969 188.738 272.362 188.766Z" fill="white" stroke="#666666" stroke-width="4" stroke-linejoin="bevel"/>
<path d="M806.673 131.193C806.032 131.186 805.39 131.189 804.746 131.197C790.662 131.938 775.483 129.331 762.571 136.444C761.662 141.823 760.753 147.202 759.844 152.581C763.226 152.899 766.651 153.453 770.517 154.013C812.211 157.25 852.92 167.351 893.525 176.685C892.025 169.333 889.785 161.035 888.084 159.024C880.502 153.726 872.208 149.514 863.672 145.977C845.372 138.941 826.547 131.404 806.673 131.193Z" fill="#1A1A1A" stroke="black" stroke-width="3.90397" stroke-linecap="round" stroke-linejoin="round"/>
<path d="M766.246 145.021C764.517 145.012 762.79 145.101 761.065 145.355C760.657 147.763 760.251 150.172 759.844 152.581C763.225 152.899 766.651 153.453 770.517 154.013C812.208 157.249 852.916 167.352 893.518 176.685C893.148 174.869 892.74 173.009 892.297 171.184C890.819 167.917 888.103 165.584 883.785 165.414C868.188 161.093 852.525 156.924 836.668 153.647C818.616 149.686 800.199 147.887 781.826 146.144C776.639 145.983 771.435 145.05 766.246 145.021Z" fill="#333333" stroke="black" stroke-width="3.89785"/>
<path d="M888.85 117.459C885.385 96.4062 878.634 76.1036 872.529 55.711C868.704 43.0475 865.179 29.6354 856.131 19.5376C851.578 14.6424 846.993 9.72378 840.874 6.76206C826.617 -1.88348 807.759 -1.25754 793.443 6.88631C781.646 14.4842 772.808 26.6266 769.466 40.2499C766.771 64.3481 765.921 88.5951 763.962 112.752C776.786 110.554 789.859 110.307 802.811 109.529C820.297 109.531 837.863 109.23 855.203 111.882C866.525 113.134 877.563 116.017 888.85 117.459Z" fill="#333333" stroke="black" stroke-width="3.89785"/>
<path d="M821.736 92.3641C831.804 92.5292 841.908 92.6682 851.924 93.7516C863.185 95.4548 874.737 96.5268 885.425 100.679C885.86 102.499 886.282 104.321 886.679 106.15L888.85 117.459C877.562 116.017 866.525 113.135 855.203 111.883C837.864 109.231 820.298 109.531 802.811 109.529C790.152 110.289 777.379 110.548 764.833 112.611C764.459 112.157 764.233 111.568 764.11 110.886C764.418 106.973 764.693 103.059 764.96 99.1429C767.057 96.8429 772.146 97.2184 775.354 96.0404C790.614 93.0643 806.242 92.8189 821.736 92.3641Z" fill="#1A1A1A" stroke="black" stroke-width="3.89785"/>
<path d="M800.987 84.0229V62.932H809.308C810.901 62.932 812.26 63.2169 813.386 63.7867C814.519 64.3497 815.38 65.1495 815.971 66.1862C816.568 67.2161 816.867 68.4278 816.867 69.8215C816.867 71.2221 816.565 72.427 815.961 73.4362C815.356 74.4386 814.481 75.2075 813.334 75.7431C812.195 76.2786 810.815 76.5463 809.195 76.5463H803.623V72.9625H808.474C809.325 72.9625 810.032 72.8458 810.595 72.6124C811.158 72.3789 811.577 72.0288 811.852 71.562C812.133 71.0951 812.274 70.515 812.274 69.8215C812.274 69.1213 812.133 68.5308 811.852 68.0502C811.577 67.5696 811.155 67.2058 810.585 66.9586C810.022 66.7046 809.311 66.5776 808.453 66.5776H805.446V84.0229H800.987ZM812.377 74.4249L817.619 84.0229H812.696L807.567 74.4249H812.377ZM819.894 84.0229V80.8098L827.402 73.8585C828.04 73.2406 828.576 72.6845 829.008 72.1901C829.448 71.6958 829.781 71.2118 830.007 70.7381C830.234 70.2575 830.347 69.7392 830.347 69.183C830.347 68.5651 830.207 68.0331 829.925 67.5868C829.644 67.1337 829.259 66.787 828.772 66.5467C828.284 66.2995 827.731 66.1759 827.114 66.1759C826.468 66.1759 825.905 66.3064 825.425 66.5673C824.944 66.8282 824.573 67.2023 824.312 67.6898C824.052 68.1772 823.921 68.7574 823.921 69.4302H819.689C819.689 68.0502 820.001 66.8522 820.626 65.8361C821.25 64.82 822.126 64.0339 823.252 63.4778C824.378 62.9217 825.675 62.6436 827.144 62.6436C828.655 62.6436 829.97 62.9114 831.089 63.4469C832.215 63.9755 833.09 64.7102 833.715 65.6507C834.34 66.5913 834.652 67.6692 834.652 68.8844C834.652 69.6808 834.494 70.4669 834.178 71.2427C833.869 72.0185 833.317 72.8801 832.52 73.8276C831.724 74.7682 830.601 75.8975 829.153 77.2157L826.073 80.2331V80.3773H834.93V84.0229H819.894Z" fill="black"/>
<path d="M222.025 131.671C220.429 131.678 218.834 131.706 217.239 131.752C205.825 131.579 194.572 133.922 183.78 137.502C165.438 143.727 145.943 149.19 131.092 162.249L129.186 175.247C129.538 175.213 129.916 175.2 130.261 175.159C163.219 168.349 196.123 160.185 229.519 155.169C240.455 154.391 251.38 152.248 262.276 151.56C262.278 151.546 262.278 151.532 262.28 151.519C260.599 145.788 261.907 137.542 255.356 134.627C244.406 132.533 233.201 131.619 222.025 131.671Z" fill="#1A1A1A" stroke="black" stroke-width="3.89785"/>
<path d="M258.008 145.143C257.697 145.137 257.377 145.144 257.054 145.159C256.192 145.199 255.302 145.295 254.475 145.359C237.736 146.017 221.076 148.135 204.521 150.614C180.405 155.057 156.341 160.163 132.888 167.359C131.054 168.262 130.184 169.791 129.725 171.583L129.272 174.667C129.256 174.862 129.225 175.048 129.211 175.245C129.556 175.212 129.924 175.199 130.261 175.159C163.219 168.349 196.123 160.185 229.519 155.169C230.886 155.072 232.253 154.954 233.62 154.819C243.184 153.876 252.737 152.148 262.268 151.545C262.209 151.259 262.15 150.973 262.091 150.687C261.785 149.413 261.568 148.063 261.383 146.669C260.801 145.511 259.51 145.171 258.008 145.143Z" fill="#333333" stroke="black" stroke-width="3.89785"/>
<path d="M132.378 117.459C135.843 96.4062 142.594 76.1036 148.699 55.711C152.525 43.0475 156.049 29.6354 165.097 19.5376C169.651 14.6424 174.236 9.72378 180.355 6.76206C194.612 -1.88348 213.47 -1.25754 227.786 6.88631C239.583 14.4842 248.42 26.6266 251.763 40.2499C254.458 64.3481 255.308 88.5951 257.266 112.752C244.442 110.554 231.37 110.307 218.418 109.529C200.931 109.531 183.365 109.23 166.025 111.882C154.704 113.134 143.666 116.017 132.378 117.459Z" fill="#333333" stroke="black" stroke-width="3.89785"/>
<path d="M199.492 92.3641C189.425 92.5292 179.321 92.6682 169.305 93.7516C158.044 95.4548 146.492 96.5268 135.803 100.679C135.369 102.499 134.947 104.321 134.55 106.15L132.379 117.459C143.666 116.017 154.703 113.135 166.025 111.883C183.365 109.231 200.93 109.531 218.417 109.529C231.076 110.289 243.85 110.548 256.395 112.611C256.77 112.157 256.996 111.568 257.119 110.886C256.811 106.973 256.536 103.059 256.269 99.1429C254.171 96.8429 249.083 97.2185 245.875 96.0404C230.614 93.0643 214.987 92.8189 199.492 92.3641Z" fill="#1A1A1A" stroke="black" stroke-width="3.89785"/>
<path d="M183.851 84.8155V63.7246H188.31V81.139H197.352V84.8155H183.851ZM200.182 84.8155V81.6024L207.689 74.6511C208.328 74.0332 208.863 73.4771 209.296 72.9827C209.735 72.4884 210.068 72.0044 210.295 71.5307C210.521 71.0501 210.634 70.5318 210.634 69.9756C210.634 69.3577 210.494 68.8257 210.212 68.3794C209.931 67.9263 209.546 67.5796 209.059 67.3393C208.571 67.0921 208.019 66.9685 207.401 66.9685C206.755 66.9685 206.192 67.099 205.712 67.3599C205.231 67.6208 204.86 67.9949 204.6 68.4824C204.339 68.9698 204.208 69.55 204.208 70.2228H199.976C199.976 68.8428 200.288 67.6448 200.913 66.6287C201.538 65.6126 202.413 64.8265 203.539 64.2704C204.665 63.7143 205.962 63.4362 207.432 63.4362C208.942 63.4362 210.257 63.704 211.376 64.2395C212.502 64.7681 213.377 65.5028 214.002 66.4433C214.627 67.3839 214.939 68.4618 214.939 69.677C214.939 70.4734 214.781 71.2595 214.465 72.0353C214.156 72.8111 213.604 73.6727 212.807 74.6202C212.011 75.5608 210.888 76.6901 209.44 78.0083L206.361 81.0257V81.1699H215.217V84.8155H200.182Z" fill="black"/>
<path d="M672.838 512.496C643.95 512.496 620.471 489.064 620.471 460.232C620.471 431.401 643.95 407.968 672.838 407.968C701.726 407.968 725.204 431.401 725.204 460.232C725.204 489.064 701.726 512.496 672.838 512.496Z" fill="#F2F2F2"/>
<path d="M672.838 409.691C700.805 409.691 723.478 432.32 723.478 460.232C723.478 488.145 700.805 510.773 672.838 510.773C644.871 510.773 622.198 488.145 622.198 460.232C622.198 432.32 644.871 409.691 672.838 409.691ZM672.838 406.245C642.914 406.245 618.745 430.367 618.745 460.232C618.745 490.097 642.914 514.219 672.838 514.219C702.761 514.219 726.931 490.097 726.931 460.232C726.931 430.367 702.761 406.245 672.838 406.245Z" fill="#B3B3B3"/>
<path d="M672.838 491.591C690.191 491.591 704.258 477.551 704.258 460.232C704.258 442.914 690.191 428.874 672.838 428.874C655.485 428.874 641.418 442.914 641.418 460.232C641.418 477.551 655.485 491.591 672.838 491.591Z" fill="white"/>
<path d="M349.034 512.496C320.146 512.496 296.667 489.064 296.667 460.232C296.667 431.401 320.146 407.968 349.034 407.968C377.922 407.968 401.4 431.401 401.4 460.232C401.4 489.064 377.922 512.496 349.034 512.496Z" fill="#F2F2F2"/>
<path d="M349.034 409.691C377.001 409.691 399.674 432.32 399.674 460.232C399.674 488.145 377.001 510.773 349.034 510.773C321.067 510.773 298.394 488.145 298.394 460.232C298.394 432.32 321.067 409.691 349.034 409.691ZM349.034 406.245C319.11 406.245 294.941 430.367 294.941 460.232C294.941 490.097 319.11 514.219 349.034 514.219C378.958 514.219 403.127 490.097 403.127 460.232C403.127 430.367 378.958 406.245 349.034 406.245Z" fill="#B3B3B3"/>
<path d="M349.034 491.591C366.387 491.591 380.454 477.551 380.454 460.232C380.454 442.914 366.387 428.874 349.034 428.874C331.681 428.874 317.614 442.914 317.614 460.232C317.614 477.551 331.681 491.591 349.034 491.591Z" fill="white"/>
</g>
<defs>
<radialGradient id="paint0_radial_1_2" cx="0" cy="0" r="1" gradientUnits="userSpaceOnUse" gradientTransform="translate(512.594 369.718) rotate(-45.1171) scale(297.063 299.446)">
<stop/>
<stop offset="1" stop-color="#00FFB3"/>
</radialGradient>
<clipPath id="clip0_1_2">
<rect width="1012" height="800" fill="white" transform="translate(6)"/>
</clipPath>
</defs>
</svg>
