<?xml version="1.0" encoding="UTF-8" standalone="no"?>
<svg width="999" height="501" viewBox="0 0 999 501" fill="none" xmlns="http://www.w3.org/2000/svg">
<g clip-path="url(#clip0_1_100)">
<g clip-path="url(#clip1_1_100)">
<path d="M969.512 3.33045C972.557 9.00033 974.289 15.1875 973.504 21.96C960.336 133.012 929.985 241.322 909.682 351.22C902.59 408.081 858.827 462.19 799.039 465.961C603.402 467.226 407.727 464.691 212.097 465.999C161.06 470.377 112.673 435.527 96.1622 387.886C71.8441 287.183 51.4225 185.478 29.6875 84.1728C20.2707 56.7747 18.4075 27.5004 30.1178 4.28146C26.6536 7.96727 22.9113 11.3984 18.5391 14.244C-11.286 34.3414 5.44286 71.567 10.1921 99.7667C22.5244 175.055 46.1998 248.135 57.3626 323.507C57.7599 325.127 58.0069 326.771 58.3618 328.398C62.4397 338.371 61.8316 351.31 65.7 361.417C71.8962 397.664 84.3692 434.439 112.99 459.158C132.745 478.834 158.784 494.673 186.545 498.502C313.182 501.126 439.909 498.745 566.581 499.539C646.56 499.34 726.702 500.227 806.578 499.367C869.096 489.725 918.26 435.893 930.578 375.027C933.642 364.546 936.798 354.093 939.915 343.628C944.961 303.572 959.191 264.607 965.09 224.561C976.351 164.123 994.046 104.264 998.755 42.9986C992.189 27.5347 980.153 15.8266 969.512 3.33045Z" fill="url(#paint0_linear_1_100)" stroke="black" stroke-width="3.90399"/>
</g>
</g>
<defs>
<linearGradient id="paint0_linear_1_100" x1="268.962" y1="3.33017" x2="403.49" y2="669.339" gradientUnits="userSpaceOnUse">
<stop/>
<stop offset="0.830399" stop-color="#00FFB3"/>
</linearGradient>
<clipPath id="clip0_1_100">
<rect width="999" height="501" fill="white"/>
</clipPath>
<clipPath id="clip1_1_100">
<rect width="1000" height="501" fill="white"/>
</clipPath>
</defs>
</svg>
