<?xml version="1.0" encoding="UTF-8" standalone="no"?>
<svg width="1024" height="531" viewBox="0 0 1024 531" fill="none" xmlns="http://www.w3.org/2000/svg">
<g clip-path="url(#clip0_1_100)">
<path d="M981.512 18.3305C984.557 24.0003 986.289 30.1875 985.504 36.96C972.336 148.012 941.985 256.322 921.682 366.22C914.59 423.081 870.827 477.19 811.039 480.961C615.402 482.226 419.727 479.691 224.097 480.999C173.06 485.377 124.673 450.527 108.162 402.886C83.8441 302.183 63.4225 200.478 41.6875 99.1728C32.2707 71.7747 30.4075 42.5004 42.1178 19.2815C38.6536 22.9673 34.9113 26.3984 30.5391 29.244C0.714038 49.3414 17.4429 86.567 22.1921 114.767C34.5244 190.055 58.1998 263.135 69.3626 338.507C69.7599 340.127 70.0069 341.771 70.3618 343.398C74.4397 353.371 73.8316 366.31 77.7 376.417C83.8962 412.664 96.3692 449.439 124.99 474.158C144.745 493.834 170.784 509.673 198.545 513.502C325.182 516.126 451.909 513.745 578.581 514.539C658.56 514.34 738.702 515.227 818.578 514.367C881.096 504.725 930.26 450.893 942.578 390.027C945.642 379.546 948.798 369.093 951.915 358.628C956.961 318.572 971.191 279.607 977.09 239.561C988.351 179.123 1006.05 119.264 1010.75 57.9986C1004.19 42.5347 992.153 30.8266 981.512 18.3305Z" fill="url(#paint0_radial_1_100)" stroke="black" stroke-width="3.90399"/>
</g>
<defs>
<radialGradient id="paint0_radial_1_100" cx="0" cy="0" r="1" gradientUnits="userSpaceOnUse" gradientTransform="translate(513.109 513.039) rotate(-45.1723) scale(697.359 702.946)">
<stop/>
<stop offset="1" stop-color="#00FFB3"/>
</radialGradient>
<clipPath id="clip0_1_100">
<rect width="1000" height="501" fill="white" transform="translate(12 15)"/>
</clipPath>
</defs>
</svg>
