<svg width="339" height="524" viewBox="0 0 339 524" fill="none" xmlns="http://www.w3.org/2000/svg">
<path d="M142.868 135.786C110.686 149.672 78.1652 162.877 46.8979 178.771C37.0092 187.494 44.0314 203.961 54.8889 208.288C77.7528 221.88 105.872 223.634 131.435 218.098C147.534 216.64 163.255 212.335 177.788 205.271C198.962 196.637 220.316 188.456 241.512 179.877C213.114 191.834 184.716 203.791 156.319 215.748C148.781 226.953 164.59 236.42 174.307 237.53C188.93 239.119 202 230.753 215.903 227.815C240.557 219.401 264.537 209.112 288.551 199.091C300.519 191.744 296.689 171.994 284.474 166.975C269.918 158.487 252.838 155.455 236.155 156.776C218.674 157.514 200.154 157.793 184.711 167.127C176.055 172.117 166.451 175.011 156.521 175.919C136.11 179.815 117.021 188.409 96.9467 193.555C118.835 185.765 140.766 178.095 162.671 170.35C156.07 158.828 149.467 147.308 142.868 135.786Z" fill="#333333" stroke="black" stroke-width="8.83921" stroke-linecap="round" stroke-linejoin="round"/>
<path d="M135.394 224.715C135.394 165.927 135.394 107.139 135.394 48.3506C140.398 37.3617 154.007 43.9412 162.279 46.7287C178.924 52.4224 196.236 56.5843 212.332 63.6352C221.515 68.3702 231.125 73.3069 236.175 82.8589C241.547 90.9556 243.913 100.66 243.192 110.296C243.089 120.869 245.38 131.975 241.13 142.017C238.335 154.082 225.181 160.528 213.65 160.757C205.004 159.899 192.434 160.203 188.62 150.641C187.96 131.187 189.121 111.67 188.025 92.2091C183.534 88.5631 184.83 103.521 184.663 107.512C184.751 147.548 184.816 187.584 184.589 227.62C187.126 236.95 175.109 240.673 168.352 236.865C157.143 233.454 146.438 228.586 135.394 224.715Z" fill="#333333" stroke="black" stroke-width="8.83921" stroke-linecap="round" stroke-linejoin="round"/>
<path fill-rule="evenodd" clip-rule="evenodd" d="M179.143 324.14L178.969 483.397L136.263 469.519V282.328L190.775 296.728C225.668 306.098 247.022 324.312 246.675 356.233C246.328 393.36 229.141 408.278 195.635 398.563V325.352C195.635 316.504 179.143 315.986 179.143 324.14Z" fill="#DE0029"/>
<path fill-rule="evenodd" clip-rule="evenodd" d="M116.645 438.635L96.5064 445.403C83.4843 449.914 72.3752 439.332 84.3536 434.993L94.0748 431.525L57.4439 419.899C46.1589 423.718 35.5683 431.871 36.2645 443.322C36.9589 454.944 63.5195 457.721 84.0066 461.018C103.102 464.139 120.463 462.404 136.263 456.853V444.881L116.645 438.635ZM179.316 483.396L216.642 470.384L178.969 458.415V482.527L179.316 483.396Z" fill="#F3C202"/>
<path fill-rule="evenodd" clip-rule="evenodd" d="M278.619 448.527L279.313 448.352C295.632 442.629 302.576 434.646 300.842 427.189C298.064 414.699 278.099 407.931 247.37 405.675C225.323 404.115 203.622 408.971 182.442 416.257L178.97 417.473L216.99 429.269L239.211 421.808C262.474 417.473 271.851 425.105 249.454 432.219L238.343 436.033L278.619 448.527ZM136.263 393.36L119.422 399.083L136.263 404.288V393.36Z" fill="#326DB3"/>
<path fill-rule="evenodd" clip-rule="evenodd" d="M216.641 470.384L278.619 448.527L238.342 436.033L178.969 456.331V458.415L216.641 470.384ZM136.263 432.044L116.645 438.636L136.263 444.881V432.044ZM178.969 442.282V417.473L216.989 429.27L178.969 442.282ZM94.0752 431.525L136.263 416.432V404.288L119.422 399.083L58.312 419.728C58.1383 419.728 57.7913 419.9 57.4443 419.9L94.0752 431.525Z" fill="#00AA9E"/>
</svg>
