<svg width="3780" height="2488" viewBox="0 0 3780 2488" fill="none" xmlns="http://www.w3.org/2000/svg">
<path d="M2931.19 1760.59C2969.84 1869.23 3013.12 1976.13 3056.45 2082.98C3104.98 2201.88 3148 2323.85 3210.09 2436.52C3223.36 2454.83 3239.5 2479.05 3261.84 2484.42C3256.2 2482.28 3251.83 2477.45 3247.91 2472.02C3238.48 2449.18 3229.06 2426.34 3219.63 2403.5C3179.05 2292.49 3137.06 2181.98 3089.12 2073.93C3036.66 1970.25 2993.51 1859.02 2931.19 1760.59ZM3285.76 2482.84C3281.07 2483.66 3276.37 2484.49 3271.68 2485.28C3271.34 2485.34 3271.02 2485.36 3270.69 2485.4C3275.2 2485.43 3279.88 2484.88 3284.89 2483.17C3285.18 2483.06 3285.47 2482.95 3285.76 2482.84Z" fill="url(#paint0_linear_1_404)" stroke="black" stroke-width="3.89785"/>
<path d="M853.313 1737.34C721.324 1962.09 626.195 2207.34 535.798 2451.18C531.877 2458.8 528.464 2466.83 524.226 2474.18C520.682 2476.61 517.444 2479.94 513.713 2481.81C527.94 2477.35 538.925 2468.56 547.347 2456.36C563.398 2435.14 574.078 2410.03 586.942 2386.73C643.789 2266.29 692.74 2142.41 741.105 2018.39C773.11 1935.01 806.807 1852.29 840.957 1769.77C844.809 1758.92 849.086 1748.13 853.313 1737.34Z" fill="url(#paint1_linear_1_404)" stroke="black" stroke-width="3.89785"/>
<path d="M1187.01 607.288C1199.95 666.636 1195.36 728.746 1173.53 785.805C1125.37 871.759 1054.77 943.108 993.613 1020.03C901.773 1135.68 828.758 1264.92 755.327 1392.77C670.514 1562.03 591.256 1734.8 525.742 1912.61C467.259 2058.04 428.709 2210.51 371 2356.1C360.658 2388.88 340.106 2433.2 305.307 2442.15C340.59 2451.86 378.917 2463.92 415.559 2470.51C417.751 2471.08 419.944 2471.66 422.136 2472.23C442.91 2475.35 463.853 2477.6 484.692 2480.39C494.282 2482.17 504.009 2481.84 513.713 2481.81C517.444 2479.94 520.682 2476.61 524.227 2474.18C528.464 2466.83 531.877 2458.8 535.798 2451.18C630.048 2196.94 728.996 1940.93 869.986 1708.48C992.215 1535.34 1205.61 1615.86 1378.39 1613.73C1766.04 1605.92 2154.43 1613.93 2541.75 1609.38C2653.67 1580.56 2785.07 1583.2 2868.49 1675.2C2968.25 1790.91 3020.77 1938.84 3089.12 2073.93C3137.06 2181.98 3179.05 2292.49 3219.63 2403.5C3229.06 2426.34 3238.48 2449.18 3247.91 2472.02C3253.85 2480.25 3260.83 2487.14 3271.68 2485.28C3282.05 2483.53 3292.42 2481.69 3302.79 2479.89C3353.29 2470.54 3435.14 2471.93 3474.09 2445.12C3446.14 2435.66 3426.51 2400.67 3415.16 2375.05C3336.33 2168.95 3280.38 1954.13 3192.07 1751.44C3123.04 1587.69 3043.96 1427.82 2957.12 1272.88C2875.32 1139.24 2786.32 1009.64 2679.3 894.762C2628.35 834.818 2582.66 763.581 2587.99 681.568C2587.6 664.717 2588.76 648.053 2590.84 631.497C2585.88 648.162 2580.85 664.809 2575.97 681.5C2556.36 778.431 2478.07 864.158 2378.51 879.513C2251.31 880.883 2123.68 879.471 1996.32 879.787C1794.6 878.524 1592.79 882.315 1391.13 878.135C1346.92 872.039 1305.45 846.814 1273.99 815.481C1228.41 776.114 1208.55 717.549 1198.68 659.825C1192.53 643.745 1193.49 623.165 1187.01 607.288Z" fill="#1A1A1A" stroke="black" stroke-width="3.89785"/>
<path d="M1991.28 1015.81C2003.26 1015.81 2012.98 1006.1 2012.98 994.112C2012.98 982.127 2003.26 972.412 1991.28 972.412C1979.29 972.412 1969.58 982.127 1969.58 994.112C1969.58 1006.1 1979.29 1015.81 1991.28 1015.81Z" fill="black"/>
<path d="M1921.53 1015.81C1933.51 1015.81 1943.23 1006.1 1943.23 994.112C1943.23 982.127 1933.51 972.412 1921.53 972.412C1909.54 972.412 1899.83 982.127 1899.83 994.112C1899.83 1006.1 1909.54 1015.81 1921.53 1015.81Z" fill="black"/>
<path d="M1851.78 1015.81C1863.76 1015.81 1873.48 1006.1 1873.48 994.112C1873.48 982.127 1863.76 972.412 1851.78 972.412C1839.79 972.412 1830.08 982.127 1830.08 994.112C1830.08 1006.1 1839.79 1015.81 1851.78 1015.81Z" fill="black"/>
<path d="M1782.03 1015.81C1794.02 1015.81 1803.73 1006.1 1803.73 994.112C1803.73 982.127 1794.02 972.412 1782.03 972.412C1770.05 972.412 1760.33 982.127 1760.33 994.112C1760.33 1006.1 1770.05 1015.81 1782.03 1015.81Z" fill="black"/>
<path d="M2025.89 954.33C2037.88 954.33 2047.59 944.614 2047.59 932.63C2047.59 920.646 2037.88 910.931 2025.89 910.931C2013.91 910.931 2004.19 920.646 2004.19 932.63C2004.19 944.614 2013.91 954.33 2025.89 954.33Z" fill="black"/>
<path d="M1956.14 954.33C1968.13 954.33 1977.84 944.614 1977.84 932.63C1977.84 920.646 1968.13 910.931 1956.14 910.931C1944.16 910.931 1934.44 920.646 1934.44 932.63C1934.44 944.614 1944.16 954.33 1956.14 954.33Z" fill="black"/>
<path d="M1885.88 954.33C1897.86 954.33 1907.58 944.614 1907.58 932.63C1907.58 920.646 1897.86 910.931 1885.88 910.931C1873.89 910.931 1864.18 920.646 1864.18 932.63C1864.18 944.614 1873.89 954.33 1885.88 954.33Z" fill="black"/>
<path d="M1817.16 954.33C1829.15 954.33 1838.86 944.614 1838.86 932.63C1838.86 920.646 1829.15 910.931 1817.16 910.931C1805.18 910.931 1795.46 920.646 1795.46 932.63C1795.46 944.614 1805.18 954.33 1817.16 954.33Z" fill="black"/>
<path d="M1746.9 954.33C1758.88 954.33 1768.6 944.614 1768.6 932.63C1768.6 920.646 1758.88 910.931 1746.9 910.931C1734.91 910.931 1725.2 920.646 1725.2 932.63C1725.2 944.614 1734.91 954.33 1746.9 954.33Z" fill="black"/>
<path d="M2490.52 1437.02C2612.53 1437.02 2711.44 1338.12 2711.44 1216.11C2711.44 1094.1 2612.53 995.187 2490.52 995.187C2368.51 995.187 2269.6 1094.1 2269.6 1216.11C2269.6 1338.12 2368.51 1437.02 2490.52 1437.02Z" fill="black"/>
<path d="M1281.21 1437.02C1403.22 1437.02 1502.13 1338.12 1502.13 1216.11C1502.13 1094.1 1403.22 995.187 1281.21 995.187C1159.2 995.187 1060.29 1094.1 1060.29 1216.11C1060.29 1338.12 1159.2 1437.02 1281.21 1437.02Z" fill="black"/>
<path d="M2572.89 40.1123C2637.28 40.0312 2698.55 63.586 2761.95 67.5353C2796.62 60.1691 2821.49 65.312 2855.33 70.2229C3011.06 82.3347 3163.11 120.146 3314.78 155.077C3347.31 155.574 3388.67 158.073 3396.65 196.744C3477.77 360.332 3542.93 531.39 3603.01 703.57C3672.84 922.781 3713.32 1149.71 3751.99 1376.04C3788.33 1605.89 3782.22 1840.88 3757.58 2071.56C3741.96 2186.41 3709.33 2307.88 3618.02 2386.33C3586.67 2418.43 3548.65 2443.8 3502.44 2445.65C3459.01 2458.61 3430.03 2408.62 3415.16 2375.05C3336.33 2168.95 3280.38 1954.13 3192.07 1751.44C3123.04 1587.69 3043.96 1427.82 2957.11 1272.88C2875.32 1139.24 2786.33 1009.64 2679.3 894.762C2628.35 834.818 2582.66 763.584 2587.98 681.571C2586.13 599.793 2619.1 522.203 2630.93 441.878C2648.87 345.63 2677.04 250.309 2684.54 152.743C2670.53 119.73 2640.83 97.4581 2621.86 68.5147C2608.17 55.1901 2590.53 46.8696 2572.89 40.1123Z" fill="url(#paint2_linear_1_404)" stroke="black" stroke-width="3.89785"/>
<path d="M1193.73 41.1101L1026.51 63.8882C962.899 52.6897 898.927 69.9794 834.852 74.5464C710.129 93.3186 587.241 123.867 464.152 149.352C433.474 153.001 394.777 148.154 387.261 185.551C275.465 406.844 190.368 640.989 127.102 880.557C76.6087 1099.82 24.876 1320.53 8.97932 1545.49C1.88168 1685.07 -3.09001 1824.97 11.1186 1964.27C18.4835 2109.09 47.0893 2265.47 153.52 2371.93C188.392 2407.6 227.622 2442.76 280.558 2442.96C330.985 2454.08 358.393 2396.07 371 2356.1C428.709 2210.51 467.259 2058.04 525.741 1912.61C591.256 1734.8 670.514 1562.03 755.326 1392.77C828.758 1264.92 901.773 1135.68 993.613 1020.03C1054.77 943.109 1125.37 871.76 1173.53 785.805C1196.32 726.24 1200.53 661.138 1185.41 599.454C1167.63 479.423 1129.93 363.042 1110.29 243.144C1102.73 198.235 1076.09 138.953 1123.58 106.947C1151.28 88.9182 1163.23 56.2592 1193.73 41.1101Z" fill="url(#paint3_linear_1_404)" stroke="black" stroke-width="3.89785"/>
<path d="M2763.64 171.318H2805.56" stroke="#999999" stroke-width="6.70314" stroke-linecap="round"/>
<path d="M2763.64 152.167H2805.56" stroke="#999999" stroke-width="6.70314" stroke-linecap="round"/>
<path d="M2763.64 132.278H2805.56" stroke="#999999" stroke-width="6.70314" stroke-linecap="round"/>
<path d="M1024.2 147.199L1008.43 167.812" stroke="#999999" stroke-width="6.70308" stroke-linecap="round"/>
<path d="M989.754 135.466V161.424" stroke="#999999" stroke-width="6.70308" stroke-linecap="round"/>
<path d="M954.282 147.226L970.095 167.812" stroke="#999999" stroke-width="6.70308" stroke-linecap="round"/>
<path d="M2637.97 89.5669C2642.82 98.5962 2645.58 108.449 2644.33 119.235C2623.36 296.088 2575.03 468.572 2542.7 643.587C2531.4 734.14 2461.71 820.308 2366.5 826.314C2054.96 828.329 1743.35 824.291 1431.82 826.375C1350.54 833.347 1273.49 777.847 1247.19 701.978C1208.47 541.607 1175.95 379.64 1141.34 218.31C1126.34 174.678 1123.37 128.058 1142.02 91.0814C1136.5 96.9511 1130.54 102.415 1123.58 106.947C1076.09 138.952 1102.73 198.235 1110.29 243.143C1129.93 363.042 1167.63 479.422 1185.41 599.454C1186.04 602.034 1186.43 604.651 1187 607.242C1193.49 623.125 1192.52 643.73 1198.68 659.825C1208.55 717.549 1228.41 776.114 1273.99 815.48C1305.45 846.814 1346.92 872.039 1391.13 878.135C1592.79 882.315 1794.6 878.523 1996.32 879.787C2123.68 879.471 2251.31 880.883 2378.51 879.513C2478.07 864.158 2556.36 778.431 2575.97 681.499C2580.85 664.809 2585.88 648.161 2590.84 631.497C2598.88 567.707 2621.54 505.654 2630.93 441.88C2648.86 345.632 2677.04 250.305 2684.54 152.739C2674.09 128.113 2654.92 109.467 2637.97 89.5669Z" fill="url(#paint4_radial_1_404)" stroke="black" stroke-width="3.90399"/>
<path d="M1887.91 2.6416C1656.01 2.81848 1424.43 18.497 1193.73 41.1101C1123.07 75.8114 1118.13 150.786 1141.34 218.31C1175.95 379.64 1208.46 541.609 1247.19 701.98C1273.48 777.849 1350.54 833.345 1431.81 826.373C1743.35 824.289 2054.96 828.329 2366.5 826.314C2461.71 820.308 2531.4 734.142 2542.7 643.589C2575.03 468.574 2623.36 296.09 2644.33 119.237C2649.51 74.6262 2591.51 43.6297 2562.74 36.78C2351.93 16.966 2140.04 9.54246 1928.43 3.01952C1914.93 2.81354 1901.42 2.68046 1887.91 2.63428V2.6416Z" fill="url(#paint5_linear_1_404)" stroke="black" stroke-width="3.89786"/>
<path d="M1813.75 1403C1806.92 1403 1800.36 1405.71 1795.53 1410.55C1790.69 1415.38 1787.98 1421.94 1787.98 1428.78C1787.98 1432.16 1788.64 1435.51 1789.94 1438.64C1791.23 1441.77 1793.13 1444.61 1795.52 1447.01C1797.92 1449.4 1800.76 1451.3 1803.89 1452.6C1807.02 1453.89 1810.37 1454.56 1813.75 1454.56H1964.02C1967.4 1454.56 1970.76 1453.89 1973.89 1452.6C1977.02 1451.3 1979.86 1449.4 1982.25 1447.01C1984.65 1444.61 1986.55 1441.77 1987.84 1438.64C1989.14 1435.51 1989.8 1432.16 1989.8 1428.78C1989.8 1425.39 1989.14 1422.04 1987.84 1418.91C1986.54 1415.78 1984.64 1412.94 1982.25 1410.55C1979.86 1408.15 1977.01 1406.25 1973.88 1404.96C1970.76 1403.66 1967.4 1403 1964.02 1403H1813.75Z" fill="#333333" stroke="black" stroke-width="5.89281" stroke-linecap="round" stroke-linejoin="round"/>
<defs>
<linearGradient id="paint0_linear_1_404" x1="3108.48" y1="1760.59" x2="3108.48" y2="2485.41" gradientUnits="userSpaceOnUse">
<stop stop-color="#F9F9F9"/>
<stop offset="1" stop-color="#939393"/>
</linearGradient>
<linearGradient id="paint1_linear_1_404" x1="683.513" y1="1737.34" x2="683.513" y2="2481.81" gradientUnits="userSpaceOnUse">
<stop stop-color="#F9F9F9"/>
<stop offset="1" stop-color="#939393"/>
</linearGradient>
<linearGradient id="paint2_linear_1_404" x1="3175.27" y1="40.1121" x2="3175.27" y2="2447.75" gradientUnits="userSpaceOnUse">
<stop stop-color="#F9F9F9"/>
<stop offset="1" stop-color="#939393"/>
</linearGradient>
<linearGradient id="paint3_linear_1_404" x1="598.175" y1="41.1101" x2="598.175" y2="2444.35" gradientUnits="userSpaceOnUse">
<stop stop-color="#F9F9F9"/>
<stop offset="1" stop-color="#939393"/>
</linearGradient>
<radialGradient id="paint4_radial_1_404" cx="0" cy="0" r="1" gradientUnits="userSpaceOnUse" gradientTransform="translate(1892.06 877.399) rotate(-45.1732) scale(1110.54 1119.44)">
<stop/>
<stop offset="1" stop-color="#0000FF"/>
</radialGradient>
<linearGradient id="paint5_linear_1_404" x1="1886.78" y1="2.63428" x2="1886.78" y2="826.964" gradientUnits="userSpaceOnUse">
<stop stop-color="#F9F9F9"/>
<stop offset="1" stop-color="#939393"/>
</linearGradient>
</defs>
</svg>
