<?xml version="1.0" encoding="UTF-8" standalone="no"?>
<svg width="3780" height="2994" viewBox="0 0 3780 2994" fill="none" xmlns="http://www.w3.org/2000/svg">
<g clip-path="url(#clip0_1_371)">
<path d="M2931.11 2266.69C2969.77 2375.33 3013.05 2482.23 3056.38 2589.08C3104.9 2707.98 3147.92 2829.95 3210.02 2942.62C3223.28 2960.93 3239.42 2985.15 3261.77 2990.52C3256.13 2988.38 3251.75 2983.55 3247.84 2978.12C3238.41 2955.28 3228.98 2932.44 3219.55 2909.6C3178.98 2798.59 3136.98 2688.08 3089.04 2580.03C3036.59 2476.35 2993.43 2365.12 2931.11 2266.69ZM3285.69 2988.94C3280.99 2989.76 3276.3 2990.59 3271.6 2991.38C3271.27 2991.44 3270.95 2991.47 3270.61 2991.51C3275.12 2991.53 3279.81 2990.98 3284.81 2989.28C3285.11 2989.17 3285.4 2989.05 3285.69 2988.94Z" fill="url(#paint0_linear_1_371)" stroke="black" stroke-width="3.89785"/>
<path d="M853.238 2243.44C721.25 2468.19 626.12 2713.44 535.723 2957.29C531.802 2964.9 528.389 2972.93 524.152 2980.29C520.607 2982.71 517.369 2986.04 513.638 2987.91C527.865 2983.45 538.85 2974.66 547.272 2962.46C563.323 2941.25 574.003 2916.13 586.868 2892.83C643.715 2772.39 692.666 2648.51 741.031 2524.5C773.036 2441.11 806.733 2358.4 840.883 2275.87C844.734 2265.02 849.011 2254.23 853.238 2243.44Z" fill="url(#paint1_linear_1_371)" stroke="black" stroke-width="3.89785"/>
<path d="M1186.94 1113.39C1199.87 1172.74 1195.28 1234.85 1173.46 1291.91C1125.3 1377.86 1054.7 1449.21 993.538 1526.13C901.698 1641.78 828.684 1771.02 755.252 1898.87C670.439 2068.13 591.181 2240.9 525.667 2418.71C467.184 2564.15 428.634 2716.61 370.925 2862.2C360.584 2894.99 340.032 2939.3 305.233 2948.25C340.515 2957.96 378.842 2970.02 415.484 2976.62C417.677 2977.19 419.869 2977.76 422.062 2978.33C442.836 2981.45 463.778 2983.7 484.618 2986.49C494.207 2988.27 503.934 2987.94 513.638 2987.91C517.369 2986.04 520.607 2982.71 524.152 2980.28C528.389 2972.93 531.802 2964.9 535.724 2957.29C629.973 2703.04 728.922 2447.04 869.911 2214.59C992.141 2041.44 1205.54 2121.96 1378.31 2119.83C1765.97 2112.03 2154.35 2120.04 2541.67 2115.48C2653.59 2086.66 2785 2089.3 2868.42 2181.3C2968.18 2297.01 3020.7 2444.94 3089.04 2580.03C3136.98 2688.08 3178.98 2798.59 3219.55 2909.6C3228.98 2932.44 3238.41 2955.28 3247.84 2978.12C3253.77 2986.35 3260.75 2993.24 3271.6 2991.38C3281.98 2989.64 3292.35 2987.79 3302.72 2985.99C3353.22 2976.64 3435.06 2978.03 3474.01 2951.22C3446.07 2941.76 3426.43 2906.77 3415.09 2881.16C3336.26 2675.05 3280.3 2460.23 3192 2257.54C3122.96 2093.79 3043.89 1933.92 2957.04 1778.99C2875.25 1645.34 2786.25 1515.74 2679.22 1400.86C2628.27 1340.92 2582.59 1269.68 2587.91 1187.67C2587.53 1170.82 2588.68 1154.15 2590.77 1137.6C2585.8 1154.26 2580.78 1170.91 2575.9 1187.6C2556.28 1284.53 2477.99 1370.26 2378.43 1385.61C2251.23 1386.98 2123.61 1385.57 1996.25 1385.89C1794.52 1384.63 1592.72 1388.42 1391.05 1384.24C1346.84 1378.14 1305.38 1352.92 1273.92 1321.58C1228.34 1282.22 1208.48 1223.65 1198.61 1165.93C1192.45 1149.85 1193.41 1129.27 1186.94 1113.39Z" fill="#1A1A1A" stroke="black" stroke-width="3.89785"/>
<path d="M1991.2 1521.91C2003.19 1521.91 2012.9 1512.2 2012.9 1500.21C2012.9 1488.23 2003.19 1478.51 1991.2 1478.51C1979.22 1478.51 1969.5 1488.23 1969.5 1500.21C1969.5 1512.2 1979.22 1521.91 1991.2 1521.91Z" fill="black"/>
<path d="M1921.45 1521.91C1933.44 1521.91 1943.15 1512.2 1943.15 1500.21C1943.15 1488.23 1933.44 1478.51 1921.45 1478.51C1909.47 1478.51 1899.75 1488.23 1899.75 1500.21C1899.75 1512.2 1909.47 1521.91 1921.45 1521.91Z" fill="black"/>
<path d="M1851.7 1521.91C1863.69 1521.91 1873.4 1512.2 1873.4 1500.21C1873.4 1488.23 1863.69 1478.51 1851.7 1478.51C1839.72 1478.51 1830.01 1488.23 1830.01 1500.21C1830.01 1512.2 1839.72 1521.91 1851.7 1521.91Z" fill="black"/>
<path d="M1781.96 1521.91C1793.94 1521.91 1803.66 1512.2 1803.66 1500.21C1803.66 1488.23 1793.94 1478.51 1781.96 1478.51C1769.97 1478.51 1760.26 1488.23 1760.26 1500.21C1760.26 1512.2 1769.97 1521.91 1781.96 1521.91Z" fill="black"/>
<path d="M2025.82 1460.43C2037.8 1460.43 2047.52 1450.72 2047.52 1438.73C2047.52 1426.75 2037.8 1417.03 2025.82 1417.03C2013.83 1417.03 2004.12 1426.75 2004.12 1438.73C2004.12 1450.72 2013.83 1460.43 2025.82 1460.43Z" fill="black"/>
<path d="M1956.07 1460.43C1968.05 1460.43 1977.77 1450.72 1977.77 1438.73C1977.77 1426.75 1968.05 1417.03 1956.07 1417.03C1944.08 1417.03 1934.37 1426.75 1934.37 1438.73C1934.37 1450.72 1944.08 1460.43 1956.07 1460.43Z" fill="black"/>
<path d="M1885.8 1460.43C1897.79 1460.43 1907.5 1450.72 1907.5 1438.73C1907.5 1426.75 1897.79 1417.03 1885.8 1417.03C1873.82 1417.03 1864.1 1426.75 1864.1 1438.73C1864.1 1450.72 1873.82 1460.43 1885.8 1460.43Z" fill="black"/>
<path d="M1817.09 1460.43C1829.07 1460.43 1838.79 1450.72 1838.79 1438.73C1838.79 1426.75 1829.07 1417.03 1817.09 1417.03C1805.1 1417.03 1795.39 1426.75 1795.39 1438.73C1795.39 1450.72 1805.1 1460.43 1817.09 1460.43Z" fill="black"/>
<path d="M1746.82 1460.43C1758.81 1460.43 1768.52 1450.72 1768.52 1438.73C1768.52 1426.75 1758.81 1417.03 1746.82 1417.03C1734.84 1417.03 1725.12 1426.75 1725.12 1438.73C1725.12 1450.72 1734.84 1460.43 1746.82 1460.43Z" fill="black"/>
<path d="M2490.45 1943.13C2612.46 1943.13 2711.37 1844.22 2711.37 1722.21C2711.37 1600.2 2612.46 1501.29 2490.45 1501.29C2368.44 1501.29 2269.53 1600.2 2269.53 1722.21C2269.53 1844.22 2368.44 1943.13 2490.45 1943.13Z" fill="black"/>
<path d="M1281.13 1943.13C1403.14 1943.13 1502.05 1844.22 1502.05 1722.21C1502.05 1600.2 1403.14 1501.29 1281.13 1501.29C1159.12 1501.29 1060.21 1600.2 1060.21 1722.21C1060.21 1844.22 1159.12 1943.13 1281.13 1943.13Z" fill="black"/>
<path d="M2572.82 546.214C2637.21 546.133 2698.48 569.687 2761.87 573.637C2796.54 566.27 2821.41 571.413 2855.25 576.324C3010.98 588.436 3163.04 626.247 3314.7 661.178C3347.24 661.675 3388.6 664.175 3396.58 702.845C3477.7 866.434 3542.86 1037.49 3602.94 1209.67C3672.76 1428.88 3713.24 1655.81 3751.91 1882.14C3788.25 2112 3782.15 2346.98 3757.51 2577.67C3741.89 2692.51 3709.26 2813.98 3617.94 2892.43C3586.59 2924.53 3548.58 2949.9 3502.37 2951.75C3458.93 2964.72 3429.95 2914.72 3415.09 2881.16C3336.26 2675.05 3280.31 2460.23 3192 2257.54C3122.96 2093.79 3043.88 1933.92 2957.04 1778.98C2875.24 1645.34 2786.25 1515.74 2679.22 1400.86C2628.28 1340.92 2582.59 1269.69 2587.91 1187.67C2586.05 1105.89 2619.03 1028.3 2630.86 947.979C2648.79 851.731 2676.97 756.41 2684.47 658.844C2670.45 625.831 2640.76 603.559 2621.79 574.616C2608.1 561.291 2590.46 552.971 2572.82 546.214Z" fill="url(#paint2_linear_1_371)" stroke="black" stroke-width="3.89785"/>
<path d="M1193.65 547.211L1026.43 569.989C962.825 558.791 898.852 576.081 834.777 580.648C710.054 599.42 587.167 629.968 464.078 655.453C433.4 659.103 394.702 654.255 387.187 691.653C275.39 912.945 190.293 1147.09 127.028 1386.66C76.534 1605.92 24.8013 1826.63 8.90461 2051.59C1.80697 2191.17 -3.16472 2331.07 11.0439 2470.37C18.4088 2615.19 47.0146 2771.57 153.445 2878.03C188.317 2913.7 227.547 2948.86 280.483 2949.06C330.91 2960.18 358.319 2902.17 370.925 2862.2C428.634 2716.61 467.184 2564.15 525.667 2418.71C591.181 2240.9 670.439 2068.13 755.252 1898.88C828.684 1771.02 901.698 1641.78 993.538 1526.13C1054.7 1449.21 1125.3 1377.86 1173.46 1291.91C1196.24 1232.34 1200.46 1167.24 1185.33 1105.56C1167.56 985.524 1129.85 869.144 1110.22 749.245C1102.65 704.336 1076.01 645.054 1123.51 613.049C1151.21 595.019 1163.15 562.361 1193.65 547.211Z" fill="url(#paint3_linear_1_371)" stroke="black" stroke-width="3.89785"/>
<path d="M2763.56 677.419H2805.48" stroke="#999999" stroke-width="6.70314" stroke-linecap="round"/>
<path d="M2763.56 658.268H2805.48" stroke="#999999" stroke-width="6.70314" stroke-linecap="round"/>
<path d="M2763.56 638.38H2805.48" stroke="#999999" stroke-width="6.70314" stroke-linecap="round"/>
<path d="M1024.13 653.3L1008.35 673.914" stroke="#999999" stroke-width="6.70308" stroke-linecap="round"/>
<path d="M989.68 641.567V667.525" stroke="#999999" stroke-width="6.70308" stroke-linecap="round"/>
<path d="M954.207 653.328L970.02 673.913" stroke="#999999" stroke-width="6.70308" stroke-linecap="round"/>
<path d="M2637.9 595.668C2642.75 604.697 2645.51 614.551 2644.26 625.336C2623.29 802.189 2574.95 974.673 2542.62 1149.69C2531.33 1240.24 2461.64 1326.41 2366.43 1332.42C2054.88 1334.43 1743.28 1330.39 1431.74 1332.48C1350.47 1339.45 1273.41 1283.95 1247.12 1208.08C1208.39 1047.71 1175.87 885.741 1141.26 724.411C1126.27 680.779 1123.3 634.159 1141.95 597.183C1136.43 603.052 1130.47 608.516 1123.51 613.048C1076.01 645.054 1102.65 704.336 1110.22 749.244C1129.85 869.143 1167.56 985.523 1185.33 1105.56C1185.97 1108.14 1186.36 1110.75 1186.92 1113.34C1193.42 1129.23 1192.45 1149.83 1198.61 1165.93C1208.48 1223.65 1228.34 1282.22 1273.92 1321.58C1305.38 1352.91 1346.84 1378.14 1391.05 1384.24C1592.72 1388.42 1794.52 1384.62 1996.25 1385.89C2123.61 1385.57 2251.23 1386.98 2378.43 1385.61C2477.99 1370.26 2556.28 1284.53 2575.9 1187.6C2580.78 1170.91 2585.8 1154.26 2590.77 1137.6C2598.8 1073.81 2621.46 1011.76 2630.86 947.982C2648.79 851.733 2676.97 756.406 2684.47 658.84C2674.01 634.214 2654.84 615.568 2637.9 595.668Z" fill="url(#paint4_radial_1_371)" stroke="black" stroke-width="3.90399"/>
<path d="M1887.84 508.743C1655.93 508.92 1424.36 524.598 1193.65 547.211C1123 581.913 1118.06 656.887 1141.26 724.411C1175.88 885.742 1208.39 1047.71 1247.12 1208.08C1273.41 1283.95 1350.46 1339.45 1431.74 1332.47C1743.27 1330.39 2054.88 1334.43 2366.43 1332.42C2461.64 1326.41 2531.33 1240.24 2542.62 1149.69C2574.95 974.675 2623.29 802.191 2644.26 625.338C2649.43 580.728 2591.44 549.731 2562.67 542.881C2351.85 523.067 2139.96 515.644 1928.36 509.121C1914.85 508.915 1901.34 508.782 1887.84 508.736V508.743Z" fill="#F9F9F9" stroke="black" stroke-width="3.89786"/>
<path d="M1813.68 1909.1C1806.84 1909.1 1800.29 1911.82 1795.45 1916.65C1790.62 1921.48 1787.9 1928.04 1787.9 1934.88C1787.9 1938.26 1788.57 1941.61 1789.86 1944.74C1791.16 1947.87 1793.06 1950.71 1795.45 1953.11C1797.84 1955.5 1800.68 1957.4 1803.81 1958.7C1806.94 1959.99 1810.29 1960.66 1813.68 1960.66H1963.94C1967.33 1960.66 1970.68 1960 1973.81 1958.7C1976.94 1957.4 1979.78 1955.51 1982.18 1953.11C1984.57 1950.72 1986.47 1947.87 1987.77 1944.74C1989.06 1941.62 1989.73 1938.26 1989.73 1934.88C1989.73 1931.49 1989.06 1928.14 1987.76 1925.01C1986.47 1921.88 1984.57 1919.04 1982.18 1916.65C1979.78 1914.25 1976.94 1912.36 1973.81 1911.06C1970.68 1909.77 1967.33 1909.1 1963.94 1909.1H1813.68Z" fill="#333333" stroke="black" stroke-width="5.89281" stroke-linecap="round" stroke-linejoin="round"/>
</g>
<defs>
<linearGradient id="paint0_linear_1_371" x1="3095.39" y1="3138.54" x2="3095.39" y2="1540.33" gradientUnits="userSpaceOnUse">
<stop stop-color="#0A894C"/>
<stop offset="1" stop-color="#00FFB3"/>
</linearGradient>
<linearGradient id="paint1_linear_1_371" x1="670.975" y1="3138.94" x2="670.975" y2="1497.39" gradientUnits="userSpaceOnUse">
<stop stop-color="#0A894C"/>
<stop offset="1" stop-color="#00FFB3"/>
</linearGradient>
<linearGradient id="paint2_linear_1_371" x1="3175.2" y1="546.213" x2="3175.2" y2="2953.85" gradientUnits="userSpaceOnUse">
<stop stop-color="#CED8D3"/>
<stop offset="1" stop-color="#0A894C"/>
</linearGradient>
<linearGradient id="paint3_linear_1_371" x1="598.1" y1="547.211" x2="598.1" y2="2950.45" gradientUnits="userSpaceOnUse">
<stop stop-color="#CED8D3"/>
<stop offset="1" stop-color="#0A894C"/>
</linearGradient>
<radialGradient id="paint4_radial_1_371" cx="0" cy="0" r="1" gradientUnits="userSpaceOnUse" gradientTransform="translate(1891.98 1383.5) rotate(-45.1732) scale(1110.54 1119.44)">
<stop/>
<stop offset="1" stop-color="#0000FF"/>
</radialGradient>
<clipPath id="clip0_1_371">
<rect width="3779.53" height="2993.63" fill="white"/>
</clipPath>
</defs>
</svg>
